<mxfile host="app.diagrams.net" modified="2023-08-27T23:53:08.133Z" agent="Mozilla/5.0 (Windows NT 10.0; Win64; x64) AppleWebKit/537.36 (KHTML, like Gecko) Chrome/115.0.0.0 Safari/537.36 Edg/115.0.1901.183" etag="h_EDGKDmxbWNhGUNAwJl" version="21.5.1" type="device">
  <diagram name="Contexto" id="ztoPSp27SqKK37VIA588">
    <mxGraphModel dx="688" dy="435" grid="1" gridSize="10" guides="1" tooltips="1" connect="1" arrows="1" fold="1" page="1" pageScale="1" pageWidth="850" pageHeight="1100" math="0" shadow="0">
      <root>
        <mxCell id="0" />
        <mxCell id="1" parent="0" />
        <mxCell id="JApBpG1Is4ODQqd0xIDY-1" value="Sistema&lt;br&gt;ABC Jobs" style="rounded=0;whiteSpace=wrap;html=1;" vertex="1" parent="1">
          <mxGeometry x="365" y="200" width="120" height="60" as="geometry" />
        </mxCell>
        <mxCell id="JApBpG1Is4ODQqd0xIDY-3" style="edgeStyle=orthogonalEdgeStyle;rounded=0;orthogonalLoop=1;jettySize=auto;html=1;" edge="1" parent="1" source="JApBpG1Is4ODQqd0xIDY-2" target="JApBpG1Is4ODQqd0xIDY-1">
          <mxGeometry relative="1" as="geometry" />
        </mxCell>
        <mxCell id="JApBpG1Is4ODQqd0xIDY-2" value="Recurso TI" style="shape=umlActor;verticalLabelPosition=bottom;verticalAlign=top;html=1;outlineConnect=0;" vertex="1" parent="1">
          <mxGeometry x="270" y="240" width="30" height="60" as="geometry" />
        </mxCell>
        <mxCell id="JApBpG1Is4ODQqd0xIDY-5" style="edgeStyle=orthogonalEdgeStyle;rounded=0;orthogonalLoop=1;jettySize=auto;html=1;" edge="1" parent="1" source="JApBpG1Is4ODQqd0xIDY-4" target="JApBpG1Is4ODQqd0xIDY-1">
          <mxGeometry relative="1" as="geometry" />
        </mxCell>
        <mxCell id="JApBpG1Is4ODQqd0xIDY-4" value="Empresa con InterÃ©s de grupo TI" style="shape=umlActor;verticalLabelPosition=bottom;verticalAlign=top;html=1;outlineConnect=0;" vertex="1" parent="1">
          <mxGeometry x="390" y="300" width="30" height="60" as="geometry" />
        </mxCell>
        <mxCell id="JApBpG1Is4ODQqd0xIDY-10" style="edgeStyle=orthogonalEdgeStyle;rounded=0;orthogonalLoop=1;jettySize=auto;html=1;" edge="1" parent="1" source="JApBpG1Is4ODQqd0xIDY-8" target="JApBpG1Is4ODQqd0xIDY-1">
          <mxGeometry relative="1" as="geometry" />
        </mxCell>
        <mxCell id="JApBpG1Is4ODQqd0xIDY-8" value="Sistema de Recursos Humanos" style="rounded=0;whiteSpace=wrap;html=1;fillColor=#60a917;fontColor=#ffffff;strokeColor=#2D7600;" vertex="1" parent="1">
          <mxGeometry x="580" y="200" width="120" height="60" as="geometry" />
        </mxCell>
      </root>
    </mxGraphModel>
  </diagram>
</mxfile>
